%TF.GenerationSoftware,KiCad,Pcbnew,(6.0.6)*%
%TF.CreationDate,2022-08-01T20:58:33-04:00*%
%TF.ProjectId,piano_keypad,7069616e-6f5f-46b6-9579-7061642e6b69,rev?*%
%TF.SameCoordinates,Original*%
%TF.FileFunction,Copper,L1,Top*%
%TF.FilePolarity,Positive*%
%FSLAX46Y46*%
G04 Gerber Fmt 4.6, Leading zero omitted, Abs format (unit mm)*
G04 Created by KiCad (PCBNEW (6.0.6)) date 2022-08-01 20:58:33*
%MOMM*%
%LPD*%
G01*
G04 APERTURE LIST*
%TA.AperFunction,ComponentPad*%
%ADD10C,2.000000*%
%TD*%
%TA.AperFunction,ComponentPad*%
%ADD11C,1.700000*%
%TD*%
%TA.AperFunction,ComponentPad*%
%ADD12O,1.700000X1.700000*%
%TD*%
%TA.AperFunction,ComponentPad*%
%ADD13R,1.700000X1.700000*%
%TD*%
%TA.AperFunction,Conductor*%
%ADD14C,0.500000*%
%TD*%
G04 APERTURE END LIST*
D10*
%TO.P,SW3,1,1*%
%TO.N,GND*%
X98850000Y-63730000D03*
X98850000Y-57230000D03*
%TO.P,SW3,2,2*%
%TO.N,/A*%
X103350000Y-57230000D03*
X103350000Y-63730000D03*
%TD*%
D11*
%TO.P,J1,1,Pin_1*%
%TO.N,/C*%
X76325000Y-38840000D03*
D12*
%TO.P,J1,2,Pin_2*%
%TO.N,/C#*%
X78865000Y-38840000D03*
D13*
%TO.P,J1,3,Pin_3*%
%TO.N,GND*%
X81405000Y-38840000D03*
D12*
%TO.P,J1,4,Pin_4*%
%TO.N,/D*%
X83945000Y-38840000D03*
%TO.P,J1,5,Pin_5*%
%TO.N,/D#*%
X86485000Y-38840000D03*
%TO.P,J1,6,Pin_6*%
%TO.N,/E*%
X89025000Y-38840000D03*
%TO.P,J1,7,Pin_7*%
%TO.N,/F*%
X91565000Y-38840000D03*
D13*
%TO.P,J1,8,Pin_8*%
%TO.N,GND*%
X94105000Y-38840000D03*
D12*
%TO.P,J1,9,Pin_9*%
%TO.N,/F#*%
X96645000Y-38840000D03*
%TO.P,J1,10,Pin_10*%
%TO.N,/G*%
X99185000Y-38840000D03*
%TO.P,J1,11,Pin_11*%
%TO.N,/G#*%
X101725000Y-38840000D03*
%TO.P,J1,12,Pin_12*%
%TO.N,/A*%
X104265000Y-38840000D03*
D13*
%TO.P,J1,13,Pin_13*%
%TO.N,GND*%
X106805000Y-38840000D03*
D12*
%TO.P,J1,14,Pin_14*%
%TO.N,/A#*%
X109345000Y-38840000D03*
%TO.P,J1,15,Pin_15*%
%TO.N,/B*%
X111885000Y-38840000D03*
%TD*%
D10*
%TO.P,SW1,1,1*%
%TO.N,GND*%
X106850000Y-63730000D03*
X106850000Y-57230000D03*
%TO.P,SW1,2,2*%
%TO.N,/B*%
X111350000Y-57230000D03*
X111350000Y-63730000D03*
%TD*%
%TO.P,SW2,1,1*%
%TO.N,GND*%
X102850000Y-42590000D03*
X102850000Y-49090000D03*
%TO.P,SW2,2,2*%
%TO.N,/A#*%
X107350000Y-49090000D03*
X107350000Y-42590000D03*
%TD*%
%TO.P,SW8,1,1*%
%TO.N,GND*%
X74850000Y-57230000D03*
X74850000Y-63730000D03*
%TO.P,SW8,2,2*%
%TO.N,/E*%
X79350000Y-57230000D03*
X79350000Y-63730000D03*
%TD*%
%TO.P,SW9,1,1*%
%TO.N,GND*%
X70850000Y-49090000D03*
X70850000Y-42590000D03*
%TO.P,SW9,2,2*%
%TO.N,/D#*%
X75350000Y-42590000D03*
X75350000Y-49090000D03*
%TD*%
%TO.P,SW12,1,1*%
%TO.N,GND*%
X58850000Y-57230000D03*
X58850000Y-63730000D03*
%TO.P,SW12,2,2*%
%TO.N,/C*%
X63350000Y-57230000D03*
X63350000Y-63730000D03*
%TD*%
%TO.P,SW5,1,1*%
%TO.N,GND*%
X90850000Y-57230000D03*
X90850000Y-63730000D03*
%TO.P,SW5,2,2*%
%TO.N,/G*%
X95350000Y-63730000D03*
X95350000Y-57230000D03*
%TD*%
%TO.P,SW6,1,1*%
%TO.N,GND*%
X86850000Y-42590000D03*
X86850000Y-49090000D03*
%TO.P,SW6,2,2*%
%TO.N,/F#*%
X91350000Y-49090000D03*
X91350000Y-42590000D03*
%TD*%
%TO.P,SW11,1,1*%
%TO.N,GND*%
X62850000Y-42590000D03*
X62850000Y-49090000D03*
%TO.P,SW11,2,2*%
%TO.N,/C#*%
X67350000Y-42590000D03*
X67350000Y-49090000D03*
%TD*%
%TO.P,SW7,1,1*%
%TO.N,GND*%
X82850000Y-63730000D03*
X82850000Y-57230000D03*
%TO.P,SW7,2,2*%
%TO.N,/F*%
X87350000Y-63730000D03*
X87350000Y-57230000D03*
%TD*%
%TO.P,SW4,1,1*%
%TO.N,GND*%
X94850000Y-49090000D03*
X94850000Y-42590000D03*
%TO.P,SW4,2,2*%
%TO.N,/G#*%
X99350000Y-42590000D03*
X99350000Y-49090000D03*
%TD*%
%TO.P,SW10,1,1*%
%TO.N,GND*%
X66850000Y-57230000D03*
X66850000Y-63730000D03*
%TO.P,SW10,2,2*%
%TO.N,/D*%
X71350000Y-57230000D03*
X71350000Y-63730000D03*
%TD*%
D14*
%TO.N,/C*%
X63350000Y-63730000D02*
X63350000Y-57230000D01*
X63350000Y-57230000D02*
X65100000Y-55480000D01*
X65100000Y-41590000D02*
X67850000Y-38840000D01*
X65100000Y-55480000D02*
X65100000Y-41590000D01*
X67850000Y-38840000D02*
X76325000Y-38840000D01*
%TO.N,/C#*%
X78865000Y-38840000D02*
X77565000Y-40140000D01*
X69800000Y-40140000D02*
X67350000Y-42590000D01*
X77565000Y-40140000D02*
X69800000Y-40140000D01*
X67350000Y-49090000D02*
X67350000Y-42590000D01*
%TO.N,/D*%
X71350000Y-63730000D02*
X71350000Y-57230000D01*
X74600000Y-41090000D02*
X81695000Y-41090000D01*
X81695000Y-41090000D02*
X83945000Y-38840000D01*
X71350000Y-57230000D02*
X73100000Y-55480000D01*
X73100000Y-42590000D02*
X74600000Y-41090000D01*
X73100000Y-55480000D02*
X73100000Y-42590000D01*
%TO.N,/D#*%
X75350000Y-49090000D02*
X75350000Y-42590000D01*
X82735000Y-42590000D02*
X86485000Y-38840000D01*
X75350000Y-42590000D02*
X82735000Y-42590000D01*
%TO.N,/E*%
X79350000Y-57230000D02*
X79350000Y-47590000D01*
X86350000Y-40590000D02*
X87350000Y-40590000D01*
X87350000Y-40590000D02*
X89025000Y-38915000D01*
X79350000Y-63730000D02*
X79350000Y-57230000D01*
X89025000Y-38915000D02*
X89025000Y-38840000D01*
X79350000Y-47590000D02*
X86350000Y-40590000D01*
%TO.N,/F*%
X87350000Y-63730000D02*
X87350000Y-57230000D01*
X89100000Y-41305000D02*
X91565000Y-38840000D01*
X89100000Y-55480000D02*
X89100000Y-41305000D01*
X87350000Y-57230000D02*
X89100000Y-55480000D01*
%TO.N,/F#*%
X95605000Y-40340000D02*
X96645000Y-39300000D01*
X91850000Y-42590000D02*
X94100000Y-40340000D01*
X96645000Y-39300000D02*
X96645000Y-38840000D01*
X91350000Y-42590000D02*
X91850000Y-42590000D01*
X91350000Y-49090000D02*
X91350000Y-42590000D01*
X94100000Y-40340000D02*
X95605000Y-40340000D01*
%TO.N,/G*%
X95350000Y-57230000D02*
X97100000Y-55480000D01*
X97100000Y-55480000D02*
X97100000Y-40925000D01*
X97100000Y-40925000D02*
X99185000Y-38840000D01*
X95350000Y-63730000D02*
X95350000Y-57230000D01*
%TO.N,/G#*%
X99350000Y-42590000D02*
X101725000Y-40215000D01*
X99350000Y-49090000D02*
X99350000Y-42590000D01*
X101725000Y-40215000D02*
X101725000Y-38840000D01*
%TO.N,/A*%
X103350000Y-63730000D02*
X103350000Y-57230000D01*
X105100000Y-55480000D02*
X105100000Y-39675000D01*
X103350000Y-57230000D02*
X105100000Y-55480000D01*
X105100000Y-39675000D02*
X104265000Y-38840000D01*
%TO.N,/A#*%
X107350000Y-49090000D02*
X107350000Y-42590000D01*
X107350000Y-42590000D02*
X109345000Y-40595000D01*
X109345000Y-40595000D02*
X109345000Y-38840000D01*
%TO.N,/B*%
X111350000Y-39375000D02*
X111885000Y-38840000D01*
X111350000Y-57230000D02*
X111350000Y-39375000D01*
X111350000Y-63730000D02*
X111350000Y-57230000D01*
%TD*%
M02*
