%TF.GenerationSoftware,KiCad,Pcbnew,(6.0.6)*%
%TF.CreationDate,2022-08-01T20:58:33-04:00*%
%TF.ProjectId,piano_keypad,7069616e-6f5f-46b6-9579-7061642e6b69,rev?*%
%TF.SameCoordinates,Original*%
%TF.FileFunction,Soldermask,Bot*%
%TF.FilePolarity,Negative*%
%FSLAX46Y46*%
G04 Gerber Fmt 4.6, Leading zero omitted, Abs format (unit mm)*
G04 Created by KiCad (PCBNEW (6.0.6)) date 2022-08-01 20:58:33*
%MOMM*%
%LPD*%
G01*
G04 APERTURE LIST*
%ADD10C,2.000000*%
%ADD11C,1.700000*%
%ADD12O,1.700000X1.700000*%
%ADD13R,1.700000X1.700000*%
G04 APERTURE END LIST*
D10*
%TO.C,SW3*%
X98850000Y-63730000D03*
X98850000Y-57230000D03*
X103350000Y-57230000D03*
X103350000Y-63730000D03*
%TD*%
D11*
%TO.C,J1*%
X76325000Y-38840000D03*
D12*
X78865000Y-38840000D03*
D13*
X81405000Y-38840000D03*
D12*
X83945000Y-38840000D03*
X86485000Y-38840000D03*
X89025000Y-38840000D03*
X91565000Y-38840000D03*
D13*
X94105000Y-38840000D03*
D12*
X96645000Y-38840000D03*
X99185000Y-38840000D03*
X101725000Y-38840000D03*
X104265000Y-38840000D03*
D13*
X106805000Y-38840000D03*
D12*
X109345000Y-38840000D03*
X111885000Y-38840000D03*
%TD*%
D10*
%TO.C,SW1*%
X106850000Y-63730000D03*
X106850000Y-57230000D03*
X111350000Y-57230000D03*
X111350000Y-63730000D03*
%TD*%
%TO.C,SW2*%
X102850000Y-42590000D03*
X102850000Y-49090000D03*
X107350000Y-49090000D03*
X107350000Y-42590000D03*
%TD*%
%TO.C,SW8*%
X74850000Y-57230000D03*
X74850000Y-63730000D03*
X79350000Y-57230000D03*
X79350000Y-63730000D03*
%TD*%
%TO.C,SW9*%
X70850000Y-49090000D03*
X70850000Y-42590000D03*
X75350000Y-42590000D03*
X75350000Y-49090000D03*
%TD*%
%TO.C,SW12*%
X58850000Y-57230000D03*
X58850000Y-63730000D03*
X63350000Y-57230000D03*
X63350000Y-63730000D03*
%TD*%
%TO.C,SW5*%
X90850000Y-57230000D03*
X90850000Y-63730000D03*
X95350000Y-63730000D03*
X95350000Y-57230000D03*
%TD*%
%TO.C,SW6*%
X86850000Y-42590000D03*
X86850000Y-49090000D03*
X91350000Y-49090000D03*
X91350000Y-42590000D03*
%TD*%
%TO.C,SW11*%
X62850000Y-42590000D03*
X62850000Y-49090000D03*
X67350000Y-42590000D03*
X67350000Y-49090000D03*
%TD*%
%TO.C,SW7*%
X82850000Y-63730000D03*
X82850000Y-57230000D03*
X87350000Y-63730000D03*
X87350000Y-57230000D03*
%TD*%
%TO.C,SW4*%
X94850000Y-49090000D03*
X94850000Y-42590000D03*
X99350000Y-42590000D03*
X99350000Y-49090000D03*
%TD*%
%TO.C,SW10*%
X66850000Y-57230000D03*
X66850000Y-63730000D03*
X71350000Y-57230000D03*
X71350000Y-63730000D03*
%TD*%
M02*
