%TF.GenerationSoftware,KiCad,Pcbnew,(6.0.6)*%
%TF.CreationDate,2022-08-01T20:58:33-04:00*%
%TF.ProjectId,piano_keypad,7069616e-6f5f-46b6-9579-7061642e6b69,rev?*%
%TF.SameCoordinates,Original*%
%TF.FileFunction,Legend,Top*%
%TF.FilePolarity,Positive*%
%FSLAX46Y46*%
G04 Gerber Fmt 4.6, Leading zero omitted, Abs format (unit mm)*
G04 Created by KiCad (PCBNEW (6.0.6)) date 2022-08-01 20:58:33*
%MOMM*%
%LPD*%
G01*
G04 APERTURE LIST*
%ADD10C,0.150000*%
%ADD11C,0.508000*%
%ADD12C,0.120000*%
G04 APERTURE END LIST*
D10*
X73100000Y-55840000D02*
X73100000Y-70840000D01*
X69100000Y-40840000D02*
X61100000Y-40840000D01*
X61100000Y-40840000D02*
X61100000Y-55840000D01*
X61100000Y-55840000D02*
X69100000Y-55840000D01*
X69100000Y-55840000D02*
X69100000Y-40840000D01*
X61100000Y-40840000D02*
X57100000Y-40840000D01*
X65100000Y-70840000D02*
X65100000Y-55840000D01*
X77100000Y-40840000D02*
X69100000Y-40840000D01*
X69100000Y-40840000D02*
X69100000Y-55840000D01*
X69100000Y-55840000D02*
X77100000Y-55840000D01*
X77100000Y-55840000D02*
X77100000Y-40840000D01*
X105100000Y-55840000D02*
X105100000Y-70840000D01*
X93100000Y-40840000D02*
X101100000Y-40840000D01*
X101100000Y-40840000D02*
X101100000Y-55840000D01*
X101100000Y-55840000D02*
X93100000Y-55840000D01*
X93100000Y-55840000D02*
X93100000Y-40840000D01*
X85100000Y-40840000D02*
X93100000Y-40840000D01*
X93100000Y-40840000D02*
X93100000Y-55840000D01*
X93100000Y-55840000D02*
X85100000Y-55840000D01*
X85100000Y-55840000D02*
X85100000Y-40840000D01*
X89100000Y-55840000D02*
X89100000Y-70840000D01*
X81100000Y-40840000D02*
X81100000Y-70840000D01*
X56850000Y-40840000D02*
X113100000Y-40840000D01*
X113100000Y-40840000D02*
X113100000Y-70840000D01*
X113100000Y-70840000D02*
X56850000Y-70840000D01*
X56850000Y-70840000D02*
X56850000Y-40840000D01*
X101100000Y-40840000D02*
X109100000Y-40840000D01*
X109100000Y-40840000D02*
X109100000Y-55840000D01*
X109100000Y-55840000D02*
X101100000Y-55840000D01*
X101100000Y-55840000D02*
X101100000Y-40840000D01*
X97100000Y-55840000D02*
X97100000Y-70840000D01*
D11*
X76555714Y-67658571D02*
X77402380Y-67658571D01*
X77765238Y-68989047D02*
X76555714Y-68989047D01*
X76555714Y-66449047D01*
X77765238Y-66449047D01*
X103225238Y-53263333D02*
X104434761Y-53263333D01*
X102983333Y-53989047D02*
X103830000Y-51449047D01*
X104676666Y-53989047D01*
X105402380Y-52295714D02*
X107216666Y-52295714D01*
X106128095Y-51207142D02*
X105402380Y-54472857D01*
X106974761Y-53384285D02*
X105160476Y-53384285D01*
X106249047Y-54472857D02*
X106974761Y-51207142D01*
X100495238Y-68263333D02*
X101704761Y-68263333D01*
X100253333Y-68989047D02*
X101100000Y-66449047D01*
X101946666Y-68989047D01*
X61886190Y-68747142D02*
X61765238Y-68868095D01*
X61402380Y-68989047D01*
X61160476Y-68989047D01*
X60797619Y-68868095D01*
X60555714Y-68626190D01*
X60434761Y-68384285D01*
X60313809Y-67900476D01*
X60313809Y-67537619D01*
X60434761Y-67053809D01*
X60555714Y-66811904D01*
X60797619Y-66570000D01*
X61160476Y-66449047D01*
X61402380Y-66449047D01*
X61765238Y-66570000D01*
X61886190Y-66690952D01*
X71164761Y-53989047D02*
X71164761Y-51449047D01*
X71769523Y-51449047D01*
X72132380Y-51570000D01*
X72374285Y-51811904D01*
X72495238Y-52053809D01*
X72616190Y-52537619D01*
X72616190Y-52900476D01*
X72495238Y-53384285D01*
X72374285Y-53626190D01*
X72132380Y-53868095D01*
X71769523Y-53989047D01*
X71164761Y-53989047D01*
X73583809Y-52295714D02*
X75398095Y-52295714D01*
X74309523Y-51207142D02*
X73583809Y-54472857D01*
X75156190Y-53384285D02*
X73341904Y-53384285D01*
X74430476Y-54472857D02*
X75156190Y-51207142D01*
X88192857Y-52658571D02*
X87346190Y-52658571D01*
X87346190Y-53989047D02*
X87346190Y-51449047D01*
X88555714Y-51449047D01*
X89402380Y-52295714D02*
X91216666Y-52295714D01*
X90128095Y-51207142D02*
X89402380Y-54472857D01*
X90974761Y-53384285D02*
X89160476Y-53384285D01*
X90249047Y-54472857D02*
X90974761Y-51207142D01*
X96495226Y-51570000D02*
X96253321Y-51449047D01*
X95890464Y-51449047D01*
X95527607Y-51570000D01*
X95285702Y-51811904D01*
X95164749Y-52053809D01*
X95043797Y-52537619D01*
X95043797Y-52900476D01*
X95164749Y-53384285D01*
X95285702Y-53626190D01*
X95527607Y-53868095D01*
X95890464Y-53989047D01*
X96132368Y-53989047D01*
X96495226Y-53868095D01*
X96616178Y-53747142D01*
X96616178Y-52900476D01*
X96132368Y-52900476D01*
X97583797Y-52295714D02*
X99398083Y-52295714D01*
X98309511Y-51207142D02*
X97583797Y-54472857D01*
X99156178Y-53384285D02*
X97341892Y-53384285D01*
X98430464Y-54472857D02*
X99156178Y-51207142D01*
D10*
X57480952Y-39292380D02*
X57480952Y-40006666D01*
X57433333Y-40149523D01*
X57338095Y-40244761D01*
X57195238Y-40292380D01*
X57100000Y-40292380D01*
X58433333Y-40292380D02*
X57957142Y-40292380D01*
X57957142Y-39292380D01*
X59338095Y-40197142D02*
X59290476Y-40244761D01*
X59147619Y-40292380D01*
X59052380Y-40292380D01*
X58909523Y-40244761D01*
X58814285Y-40149523D01*
X58766666Y-40054285D01*
X58719047Y-39863809D01*
X58719047Y-39720952D01*
X58766666Y-39530476D01*
X58814285Y-39435238D01*
X58909523Y-39340000D01*
X59052380Y-39292380D01*
X59147619Y-39292380D01*
X59290476Y-39340000D01*
X59338095Y-39387619D01*
X60052380Y-39292380D02*
X60052380Y-40006666D01*
X60004761Y-40149523D01*
X59909523Y-40244761D01*
X59766666Y-40292380D01*
X59671428Y-40292380D01*
X61004761Y-40292380D02*
X60528571Y-40292380D01*
X60528571Y-39292380D01*
X61909523Y-40197142D02*
X61861904Y-40244761D01*
X61719047Y-40292380D01*
X61623809Y-40292380D01*
X61480952Y-40244761D01*
X61385714Y-40149523D01*
X61338095Y-40054285D01*
X61290476Y-39863809D01*
X61290476Y-39720952D01*
X61338095Y-39530476D01*
X61385714Y-39435238D01*
X61480952Y-39340000D01*
X61623809Y-39292380D01*
X61719047Y-39292380D01*
X61861904Y-39340000D01*
X61909523Y-39387619D01*
X62623809Y-39292380D02*
X62623809Y-40006666D01*
X62576190Y-40149523D01*
X62480952Y-40244761D01*
X62338095Y-40292380D01*
X62242857Y-40292380D01*
X63576190Y-40292380D02*
X63100000Y-40292380D01*
X63100000Y-39292380D01*
X64480952Y-40197142D02*
X64433333Y-40244761D01*
X64290476Y-40292380D01*
X64195238Y-40292380D01*
X64052380Y-40244761D01*
X63957142Y-40149523D01*
X63909523Y-40054285D01*
X63861904Y-39863809D01*
X63861904Y-39720952D01*
X63909523Y-39530476D01*
X63957142Y-39435238D01*
X64052380Y-39340000D01*
X64195238Y-39292380D01*
X64290476Y-39292380D01*
X64433333Y-39340000D01*
X64480952Y-39387619D01*
X65195238Y-39292380D02*
X65195238Y-40006666D01*
X65147619Y-40149523D01*
X65052380Y-40244761D01*
X64909523Y-40292380D01*
X64814285Y-40292380D01*
X66147619Y-40292380D02*
X65671428Y-40292380D01*
X65671428Y-39292380D01*
X67052380Y-40197142D02*
X67004761Y-40244761D01*
X66861904Y-40292380D01*
X66766666Y-40292380D01*
X66623809Y-40244761D01*
X66528571Y-40149523D01*
X66480952Y-40054285D01*
X66433333Y-39863809D01*
X66433333Y-39720952D01*
X66480952Y-39530476D01*
X66528571Y-39435238D01*
X66623809Y-39340000D01*
X66766666Y-39292380D01*
X66861904Y-39292380D01*
X67004761Y-39340000D01*
X67052380Y-39387619D01*
D11*
X93765238Y-66570000D02*
X93523333Y-66449047D01*
X93160476Y-66449047D01*
X92797619Y-66570000D01*
X92555714Y-66811904D01*
X92434761Y-67053809D01*
X92313809Y-67537619D01*
X92313809Y-67900476D01*
X92434761Y-68384285D01*
X92555714Y-68626190D01*
X92797619Y-68868095D01*
X93160476Y-68989047D01*
X93402380Y-68989047D01*
X93765238Y-68868095D01*
X93886190Y-68747142D01*
X93886190Y-67900476D01*
X93402380Y-67900476D01*
X68434754Y-68989053D02*
X68434754Y-66449053D01*
X69039516Y-66449053D01*
X69402373Y-66570006D01*
X69644278Y-66811910D01*
X69765231Y-67053815D01*
X69886183Y-67537625D01*
X69886183Y-67900482D01*
X69765231Y-68384291D01*
X69644278Y-68626196D01*
X69402373Y-68868101D01*
X69039516Y-68989053D01*
X68434754Y-68989053D01*
X64616190Y-53747142D02*
X64495238Y-53868095D01*
X64132380Y-53989047D01*
X63890476Y-53989047D01*
X63527619Y-53868095D01*
X63285714Y-53626190D01*
X63164761Y-53384285D01*
X63043809Y-52900476D01*
X63043809Y-52537619D01*
X63164761Y-52053809D01*
X63285714Y-51811904D01*
X63527619Y-51570000D01*
X63890476Y-51449047D01*
X64132380Y-51449047D01*
X64495238Y-51570000D01*
X64616190Y-51690952D01*
X65583809Y-52295714D02*
X67398095Y-52295714D01*
X66309523Y-51207142D02*
X65583809Y-54472857D01*
X67156190Y-53384285D02*
X65341904Y-53384285D01*
X66430476Y-54472857D02*
X67156190Y-51207142D01*
X109281418Y-67658571D02*
X109644275Y-67779523D01*
X109765228Y-67900476D01*
X109886180Y-68142380D01*
X109886180Y-68505238D01*
X109765228Y-68747142D01*
X109644275Y-68868095D01*
X109402370Y-68989047D01*
X108434751Y-68989047D01*
X108434751Y-66449047D01*
X109281418Y-66449047D01*
X109523323Y-66570000D01*
X109644275Y-66690952D01*
X109765228Y-66932857D01*
X109765228Y-67174761D01*
X109644275Y-67416666D01*
X109523323Y-67537619D01*
X109281418Y-67658571D01*
X108434751Y-67658571D01*
D10*
X57385714Y-38506666D02*
X57861904Y-38506666D01*
X57290476Y-38792380D02*
X57623809Y-37792380D01*
X57957142Y-38792380D01*
X58433333Y-38792380D02*
X58338095Y-38744761D01*
X58290476Y-38649523D01*
X58290476Y-37792380D01*
X59242857Y-38792380D02*
X59242857Y-37792380D01*
X59242857Y-38744761D02*
X59147619Y-38792380D01*
X58957142Y-38792380D01*
X58861904Y-38744761D01*
X58814285Y-38697142D01*
X58766666Y-38601904D01*
X58766666Y-38316190D01*
X58814285Y-38220952D01*
X58861904Y-38173333D01*
X58957142Y-38125714D01*
X59147619Y-38125714D01*
X59242857Y-38173333D01*
X60100000Y-38744761D02*
X60004761Y-38792380D01*
X59814285Y-38792380D01*
X59719047Y-38744761D01*
X59671428Y-38649523D01*
X59671428Y-38268571D01*
X59719047Y-38173333D01*
X59814285Y-38125714D01*
X60004761Y-38125714D01*
X60100000Y-38173333D01*
X60147619Y-38268571D01*
X60147619Y-38363809D01*
X59671428Y-38459047D01*
X60576190Y-38125714D02*
X60576190Y-38792380D01*
X60576190Y-38220952D02*
X60623809Y-38173333D01*
X60719047Y-38125714D01*
X60861904Y-38125714D01*
X60957142Y-38173333D01*
X61004761Y-38268571D01*
X61004761Y-38792380D01*
X62576190Y-38268571D02*
X62719047Y-38316190D01*
X62766666Y-38363809D01*
X62814285Y-38459047D01*
X62814285Y-38601904D01*
X62766666Y-38697142D01*
X62719047Y-38744761D01*
X62623809Y-38792380D01*
X62242857Y-38792380D01*
X62242857Y-37792380D01*
X62576190Y-37792380D01*
X62671428Y-37840000D01*
X62719047Y-37887619D01*
X62766666Y-37982857D01*
X62766666Y-38078095D01*
X62719047Y-38173333D01*
X62671428Y-38220952D01*
X62576190Y-38268571D01*
X62242857Y-38268571D01*
X63242857Y-38792380D02*
X63242857Y-38125714D01*
X63242857Y-38316190D02*
X63290476Y-38220952D01*
X63338095Y-38173333D01*
X63433333Y-38125714D01*
X63528571Y-38125714D01*
X64290476Y-38792380D02*
X64290476Y-38268571D01*
X64242857Y-38173333D01*
X64147619Y-38125714D01*
X63957142Y-38125714D01*
X63861904Y-38173333D01*
X64290476Y-38744761D02*
X64195238Y-38792380D01*
X63957142Y-38792380D01*
X63861904Y-38744761D01*
X63814285Y-38649523D01*
X63814285Y-38554285D01*
X63861904Y-38459047D01*
X63957142Y-38411428D01*
X64195238Y-38411428D01*
X64290476Y-38363809D01*
X65195238Y-38792380D02*
X65195238Y-37792380D01*
X65195238Y-38744761D02*
X65100000Y-38792380D01*
X64909523Y-38792380D01*
X64814285Y-38744761D01*
X64766666Y-38697142D01*
X64719047Y-38601904D01*
X64719047Y-38316190D01*
X64766666Y-38220952D01*
X64814285Y-38173333D01*
X64909523Y-38125714D01*
X65100000Y-38125714D01*
X65195238Y-38173333D01*
X65528571Y-38125714D02*
X65909523Y-38125714D01*
X65671428Y-38792380D02*
X65671428Y-37935238D01*
X65719047Y-37840000D01*
X65814285Y-37792380D01*
X65909523Y-37792380D01*
X66385714Y-38792380D02*
X66290476Y-38744761D01*
X66242857Y-38697142D01*
X66195238Y-38601904D01*
X66195238Y-38316190D01*
X66242857Y-38220952D01*
X66290476Y-38173333D01*
X66385714Y-38125714D01*
X66528571Y-38125714D01*
X66623809Y-38173333D01*
X66671428Y-38220952D01*
X66719047Y-38316190D01*
X66719047Y-38601904D01*
X66671428Y-38697142D01*
X66623809Y-38744761D01*
X66528571Y-38792380D01*
X66385714Y-38792380D01*
X67147619Y-38792380D02*
X67147619Y-38125714D01*
X67147619Y-38316190D02*
X67195238Y-38220952D01*
X67242857Y-38173333D01*
X67338095Y-38125714D01*
X67433333Y-38125714D01*
X68195238Y-38792380D02*
X68195238Y-37792380D01*
X68195238Y-38744761D02*
X68100000Y-38792380D01*
X67909523Y-38792380D01*
X67814285Y-38744761D01*
X67766666Y-38697142D01*
X67719047Y-38601904D01*
X67719047Y-38316190D01*
X67766666Y-38220952D01*
X67814285Y-38173333D01*
X67909523Y-38125714D01*
X68100000Y-38125714D01*
X68195238Y-38173333D01*
X69385714Y-37887619D02*
X69433333Y-37840000D01*
X69528571Y-37792380D01*
X69766666Y-37792380D01*
X69861904Y-37840000D01*
X69909523Y-37887619D01*
X69957142Y-37982857D01*
X69957142Y-38078095D01*
X69909523Y-38220952D01*
X69338095Y-38792380D01*
X69957142Y-38792380D01*
X70576190Y-37792380D02*
X70671428Y-37792380D01*
X70766666Y-37840000D01*
X70814285Y-37887619D01*
X70861904Y-37982857D01*
X70909523Y-38173333D01*
X70909523Y-38411428D01*
X70861904Y-38601904D01*
X70814285Y-38697142D01*
X70766666Y-38744761D01*
X70671428Y-38792380D01*
X70576190Y-38792380D01*
X70480952Y-38744761D01*
X70433333Y-38697142D01*
X70385714Y-38601904D01*
X70338095Y-38411428D01*
X70338095Y-38173333D01*
X70385714Y-37982857D01*
X70433333Y-37887619D01*
X70480952Y-37840000D01*
X70576190Y-37792380D01*
X71290476Y-37887619D02*
X71338095Y-37840000D01*
X71433333Y-37792380D01*
X71671428Y-37792380D01*
X71766666Y-37840000D01*
X71814285Y-37887619D01*
X71861904Y-37982857D01*
X71861904Y-38078095D01*
X71814285Y-38220952D01*
X71242857Y-38792380D01*
X71861904Y-38792380D01*
X72242857Y-37887619D02*
X72290476Y-37840000D01*
X72385714Y-37792380D01*
X72623809Y-37792380D01*
X72719047Y-37840000D01*
X72766666Y-37887619D01*
X72814285Y-37982857D01*
X72814285Y-38078095D01*
X72766666Y-38220952D01*
X72195238Y-38792380D01*
X72814285Y-38792380D01*
D11*
X85462857Y-67658571D02*
X84616190Y-67658571D01*
X84616190Y-68989047D02*
X84616190Y-66449047D01*
X85825714Y-66449047D01*
D12*
%TO.C,SW3*%
X101850000Y-56980000D02*
X100350000Y-56980000D01*
X100350000Y-63980000D02*
X101850000Y-63980000D01*
X104350000Y-62730000D02*
X104350000Y-58230000D01*
X97850000Y-58230000D02*
X97850000Y-62730000D01*
%TO.C,J1*%
X75055000Y-40170000D02*
X113215000Y-40170000D01*
X75055000Y-40170000D02*
X75055000Y-37510000D01*
X113215000Y-40170000D02*
X113215000Y-37510000D01*
X75055000Y-37510000D02*
X113215000Y-37510000D01*
%TO.C,SW1*%
X112350000Y-62730000D02*
X112350000Y-58230000D01*
X105850000Y-58230000D02*
X105850000Y-62730000D01*
X108350000Y-63980000D02*
X109850000Y-63980000D01*
X109850000Y-56980000D02*
X108350000Y-56980000D01*
%TO.C,SW2*%
X108350000Y-48090000D02*
X108350000Y-43590000D01*
X104350000Y-49340000D02*
X105850000Y-49340000D01*
X101850000Y-43590000D02*
X101850000Y-48090000D01*
X105850000Y-42340000D02*
X104350000Y-42340000D01*
%TO.C,SW8*%
X73850000Y-58230000D02*
X73850000Y-62730000D01*
X77850000Y-56980000D02*
X76350000Y-56980000D01*
X76350000Y-63980000D02*
X77850000Y-63980000D01*
X80350000Y-62730000D02*
X80350000Y-58230000D01*
%TO.C,SW9*%
X72350000Y-49340000D02*
X73850000Y-49340000D01*
X73850000Y-42340000D02*
X72350000Y-42340000D01*
X69850000Y-43590000D02*
X69850000Y-48090000D01*
X76350000Y-48090000D02*
X76350000Y-43590000D01*
%TO.C,SW12*%
X61850000Y-56980000D02*
X60350000Y-56980000D01*
X60350000Y-63980000D02*
X61850000Y-63980000D01*
X57850000Y-58230000D02*
X57850000Y-62730000D01*
X64350000Y-62730000D02*
X64350000Y-58230000D01*
%TO.C,SW5*%
X89850000Y-58230000D02*
X89850000Y-62730000D01*
X92350000Y-63980000D02*
X93850000Y-63980000D01*
X93850000Y-56980000D02*
X92350000Y-56980000D01*
X96350000Y-62730000D02*
X96350000Y-58230000D01*
%TO.C,SW6*%
X88350000Y-49340000D02*
X89850000Y-49340000D01*
X89850000Y-42340000D02*
X88350000Y-42340000D01*
X85850000Y-43590000D02*
X85850000Y-48090000D01*
X92350000Y-48090000D02*
X92350000Y-43590000D01*
%TO.C,SW11*%
X68350000Y-48090000D02*
X68350000Y-43590000D01*
X64350000Y-49340000D02*
X65850000Y-49340000D01*
X65850000Y-42340000D02*
X64350000Y-42340000D01*
X61850000Y-43590000D02*
X61850000Y-48090000D01*
%TO.C,SW7*%
X88350000Y-62730000D02*
X88350000Y-58230000D01*
X81850000Y-58230000D02*
X81850000Y-62730000D01*
X84350000Y-63980000D02*
X85850000Y-63980000D01*
X85850000Y-56980000D02*
X84350000Y-56980000D01*
%TO.C,SW4*%
X96350000Y-49340000D02*
X97850000Y-49340000D01*
X100350000Y-48090000D02*
X100350000Y-43590000D01*
X93850000Y-43590000D02*
X93850000Y-48090000D01*
X97850000Y-42340000D02*
X96350000Y-42340000D01*
%TO.C,SW10*%
X65850000Y-58230000D02*
X65850000Y-62730000D01*
X72350000Y-62730000D02*
X72350000Y-58230000D01*
X69850000Y-56980000D02*
X68350000Y-56980000D01*
X68350000Y-63980000D02*
X69850000Y-63980000D01*
%TD*%
M02*
