M48
; DRILL file {KiCad (6.0.6)} date Mon Aug  1 20:58:36 2022
; FORMAT={-:-/ absolute / inch / decimal}
; #@! TF.CreationDate,2022-08-01T20:58:36-04:00
; #@! TF.GenerationSoftware,Kicad,Pcbnew,(6.0.6)
; #@! TF.FileFunction,Plated,1,2,PTH
FMAT,2
INCH
; #@! TA.AperFunction,Plated,PTH,ComponentDrill
T1C0.0394
; #@! TA.AperFunction,Plated,PTH,ComponentDrill
T2C0.0433
%
G90
G05
T1
X3.0049Y-1.5291
X3.1049Y-1.5291
X3.2049Y-1.5291
X3.3049Y-1.5291
X3.4049Y-1.5291
X3.5049Y-1.5291
X3.6049Y-1.5291
X3.7049Y-1.5291
X3.8049Y-1.5291
X3.9049Y-1.5291
X4.0049Y-1.5291
X4.1049Y-1.5291
X4.2049Y-1.5291
X4.3049Y-1.5291
X4.4049Y-1.5291
T2
X2.3169Y-2.2531
X2.3169Y-2.5091
X2.4744Y-1.6768
X2.4744Y-1.9327
X2.4941Y-2.2531
X2.4941Y-2.5091
X2.6319Y-2.2531
X2.6319Y-2.5091
X2.6516Y-1.6768
X2.6516Y-1.9327
X2.7894Y-1.6768
X2.7894Y-1.9327
X2.8091Y-2.2531
X2.8091Y-2.5091
X2.9469Y-2.2531
X2.9469Y-2.5091
X2.9665Y-1.6768
X2.9665Y-1.9327
X3.124Y-2.2531
X3.124Y-2.5091
X3.2618Y-2.2531
X3.2618Y-2.5091
X3.4193Y-1.6768
X3.4193Y-1.9327
X3.439Y-2.2531
X3.439Y-2.5091
X3.5768Y-2.2531
X3.5768Y-2.5091
X3.5965Y-1.6768
X3.5965Y-1.9327
X3.7343Y-1.6768
X3.7343Y-1.9327
X3.7539Y-2.2531
X3.7539Y-2.5091
X3.8917Y-2.2531
X3.8917Y-2.5091
X3.9114Y-1.6768
X3.9114Y-1.9327
X4.0492Y-1.6768
X4.0492Y-1.9327
X4.0689Y-2.2531
X4.0689Y-2.5091
X4.2067Y-2.2531
X4.2067Y-2.5091
X4.2264Y-1.6768
X4.2264Y-1.9327
X4.3839Y-2.2531
X4.3839Y-2.5091
T0
M30
